<?xml version="1.0" standalone="no"?><!DOCTYPE svg PUBLIC "-//W3C//DTD SVG 1.1//EN" "http://www.w3.org/Graphics/SVG/1.1/DTD/svg11.dtd"><svg t="1614829386193" class="icon" viewBox="0 0 1077 1024" version="1.1" xmlns="http://www.w3.org/2000/svg" p-id="4555" xmlns:xlink="http://www.w3.org/1999/xlink" width="420.703125" height="400"><defs><style type="text/css"></style></defs><path d="M485.052632 93.399579v875.789474a53.894737 53.894737 0 0 0 107.789473 0V93.399579a53.894737 53.894737 0 0 0-107.789473 0z" fill="#9197B2" p-id="4556"></path><path d="M101.052632 585.189053h875.789473a53.894737 53.894737 0 0 0 0-107.789474H101.052632a53.894737 53.894737 0 0 0 0 107.789474zM396.665263 125.898105A53.894737 53.894737 0 1 0 320.512 202.105263L538.947368 420.594526l218.489264-218.489263a53.894737 53.894737 0 1 0-76.261053-76.207158L538.947368 268.180211l-142.282105-142.282106z" fill="#9197B2" p-id="4557"></path><path d="M951.996632 396.665263a53.894737 53.894737 0 0 0-76.207158-76.207158L657.300211 538.947368l218.489263 218.489264a53.894737 53.894737 0 1 0 76.207158-76.261053L809.714526 538.947368l142.282106-142.282105zM681.229474 951.996632a53.894737 53.894737 0 0 0 76.207158-76.207158L538.947368 657.300211 320.458105 875.789474a53.894737 53.894737 0 0 0 76.261053 76.207158L538.947368 809.714526l142.282106 142.282106zM125.898105 681.229474a53.894737 53.894737 0 1 0 76.207158 76.207158L420.594526 538.947368 202.105263 320.458105a53.894737 53.894737 0 1 0-76.207158 76.261053L268.180211 538.947368l-142.282106 142.282106z" fill="#9197B2" p-id="4558"></path></svg>