<?xml version="1.0" standalone="no"?><!DOCTYPE svg PUBLIC "-//W3C//DTD SVG 1.1//EN" "http://www.w3.org/Graphics/SVG/1.1/DTD/svg11.dtd"><svg t="1606712587802" class="icon" viewBox="0 0 1024 1024" version="1.1" xmlns="http://www.w3.org/2000/svg" p-id="14219" data-spm-anchor-id="a313x.7781069.0.i18" width="128" height="128" xmlns:xlink="http://www.w3.org/1999/xlink"><defs><style type="text/css"></style></defs><path d="M917.048889 546.133333c-2.275556-6.826667-4.551111-13.653333-9.102222-20.48-4.551111-11.377778-11.377778-20.48-18.204445-31.857777-6.826667-13.653333-15.928889-27.306667-22.755555-40.96-34.133333-79.644444-34.133333-166.115556 0-245.76 2.275556-4.551111 2.275556-11.377778 0-15.928889-2.275556-4.551111-6.826667-9.102222-13.653334-11.377778-9.102222-4.551111-20.48-2.275556-27.306666 6.826667h-2.275556c-47.786667 25.031111-86.471111 59.164444-118.328889 97.848888l-6.826666 9.102223-2.275556-11.377778c-13.653333-106.951111-84.195556-200.248889-184.32-250.311111-4.551111-2.275556-6.826667-2.275556-11.377778-2.275556h-6.826666c-6.826667 2.275556-11.377778 4.551111-15.928889 11.377778-2.275556 4.551111-4.551111 9.102222-2.275556 15.928889 15.928889 54.613333 13.653333 113.777778-6.826667 168.391111-15.928889 40.96-38.684444 79.644444-72.817777 111.502222l-4.551111 4.551111-4.551112-6.826666c-9.102222-13.653333-20.48-27.306667-31.857777-40.96-34.133333-36.408889-75.093333-65.991111-122.88-86.471111 0-4.551111-4.551111-4.551111-6.826667-4.551112-4.551111 0-9.102222 0-11.377778 2.275556h-2.275555c-6.826667 4.551111-11.377778 9.102222-13.653334 13.653333-2.275556 4.551111-2.275556 11.377778 0 15.928889 18.204444 38.684444 29.582222 79.644444 29.582223 120.604445 0 27.306667-4.551111 56.888889-13.653334 81.92l-13.653333 34.133333v4.551111c-31.857778 52.337778-47.786667 111.502222-47.786667 172.942222 0 47.786667 11.377778 95.573333 29.582222 141.084445 20.48 43.235556 47.786667 81.92 84.195556 113.777778 36.408889 34.133333 77.368889 59.164444 125.155556 77.368888 47.786667 18.204444 100.124444 27.306667 152.462222 27.306667s104.675556-9.102222 152.462222-27.306667c45.511111-18.204444 88.746667-43.235556 125.155556-77.368888s63.715556-72.817778 84.195555-113.777778c20.48-45.511111 29.582222-91.022222 29.582222-141.084445-2.275556-38.684444-6.826667-72.817778-18.204444-102.4z m-131.982222 327.68c-65.991111 59.164444-152.462222 93.297778-243.484445 93.297778S364.088889 932.977778 298.097778 873.813333c-65.991111-59.164444-100.124444-141.084444-100.124445-225.28 0-52.337778 13.653333-106.951111 43.235556-152.462222 0 0 2.275556-2.275556 2.275555-4.551111s2.275556-2.275556 2.275556-2.275556c6.826667-13.653333 11.377778-25.031111 15.928889-38.684444 9.102222-29.582222 13.653333-61.44 13.653333-95.573333 0-25.031111-2.275556-50.062222-9.102222-75.093334l-4.551111-15.928889 11.377778 9.102223c18.204444 11.377778 34.133333 27.306667 47.786666 43.235555 15.928889 18.204444 29.582222 38.684444 40.96 59.164445 2.275556 4.551111 2.275556 6.826667 4.551111 9.102222 9.102222 9.102222 22.755556 9.102222 34.133334 2.275555 52.337778-40.96 91.022222-93.297778 113.777778-154.737777 15.928889-40.96 20.48-84.195556 18.204444-129.706667v-13.653333l9.102222 6.826666c86.471111 68.266667 129.706667 175.217778 111.502222 279.893334v2.275555c-2.275556 6.826667-4.551111 11.377778-6.826666 18.204445-2.275556 4.551111 0 11.377778 2.275555 15.928889 2.275556 4.551111 9.102222 9.102222 13.653334 11.377777 11.377778 2.275556 25.031111-4.551111 29.582222-13.653333 18.204444-59.164444 52.337778-111.502222 102.4-152.462222l11.377778-9.102222-2.275556 15.928888c-11.377778 68.266667-4.551111 136.533333 25.031111 200.248889 6.826667 13.653333 13.653333 29.582222 22.755556 43.235556 13.653333 20.48 22.755556 38.684444 27.306666 61.44 6.826667 25.031111 9.102222 50.062222 9.102223 77.368889 0 88.746667-36.408889 168.391111-102.4 227.555555z" fill="#ffffff" p-id="14220"></path></svg>