<?xml version="1.0" standalone="no"?><!DOCTYPE svg PUBLIC "-//W3C//DTD SVG 1.1//EN" "http://www.w3.org/Graphics/SVG/1.1/DTD/svg11.dtd"><svg t="1606721522362" class="icon" viewBox="0 0 1279 1024" version="1.1" xmlns="http://www.w3.org/2000/svg" p-id="4132" xmlns:xlink="http://www.w3.org/1999/xlink" width="159.875" height="128"><defs><style type="text/css"></style></defs><path d="M748.753203 754.512843a242.480845 242.480845 0 1 1 484.96169 0 242.480845 242.480845 0 0 1-484.96169 0z m72.763452 0a169.717393 169.717393 0 1 0 339.434786 0 169.717393 169.717393 0 0 0-339.434786 0z m40.381476 0a129.271921 129.271921 0 1 1 258.671833 0 129.271921 129.271921 0 0 1-258.671833 0zM0 404.198738a404.134742 404.134742 0 1 1 808.269483 0 404.134742 404.134742 0 0 1-808.269483 0z m113.144928 0a290.989813 290.989813 0 1 0 581.979627 0 290.989813 290.989813 0 0 0-581.979627 0z m48.508969 0a242.480845 242.480845 0 1 1 484.96169 0 242.480845 242.480845 0 0 1-484.96169 0z" p-id="4133" fill="#ffffff"></path></svg>